HIERARCHY
ROOT Hips
{
 OFFSET 0.000000 0.000000 0.000000
 CHANNELS 6 Xposition Yposition Zposition Yrotation Xrotation Zrotation
 JOINT Chest
 {
  OFFSET 0.000000 9.585900 0.002600
  CHANNELS 3 Yrotation Xrotation Zrotation
  JOINT Chest2
  {
   OFFSET 0.000000 9.601200 -0.005300
   CHANNELS 3 Yrotation Xrotation Zrotation
   JOINT Chest3
   {
    OFFSET 0.000000 9.561800 0.000000
    CHANNELS 3 Yrotation Xrotation Zrotation
    JOINT Chest4
    {
     OFFSET 0.000000 9.552100 0.000000
     CHANNELS 3 Yrotation Xrotation Zrotation
     JOINT Neck
     {
      OFFSET 0.000000 14.453000 0.000000
      CHANNELS 3 Yrotation Xrotation Zrotation
      JOINT Head
      {
       OFFSET 0.000000 8.936500 -0.011300
       CHANNELS 3 Yrotation Xrotation Zrotation
       End Site
       {
        OFFSET 0.000000 17.073600 -0.006000
       }
      }
     }
     JOINT RightCollar
     {
      OFFSET -2.921100 9.558500 0.000000
      CHANNELS 3 Yrotation Xrotation Zrotation
      JOINT RightShoulder
      {
       OFFSET -13.519700 0.000000 0.000000
       CHANNELS 3 Yrotation Xrotation Zrotation
       JOINT RightElbow
       {
        OFFSET 0.000000 -29.696600 0.000000
        CHANNELS 3 Yrotation Xrotation Zrotation
        JOINT RightWrist
        {
         OFFSET 0.000000 -24.004700 0.000000
         CHANNELS 3 Yrotation Xrotation Zrotation
         End Site
         {
          OFFSET 0.000000 -17.728500 0.000000
         }
        }
       }
      }
     }
     JOINT LeftCollar
     {
      OFFSET 2.921100 9.558500 0.000000
      CHANNELS 3 Yrotation Xrotation Zrotation
      JOINT LeftShoulder
      {
       OFFSET 13.519700 0.000000 0.000000
       CHANNELS 3 Yrotation Xrotation Zrotation
       JOINT LeftElbow
       {
        OFFSET 0.000000 -29.696600 0.000000
        CHANNELS 3 Yrotation Xrotation Zrotation
        JOINT LeftWrist
        {
         OFFSET 0.000000 -24.004700 0.000000
         CHANNELS 3 Yrotation Xrotation Zrotation
         End Site
         {
          OFFSET 0.000000 -17.728500 0.000000
         }
        }
       }
      }
     }
    }
   }
  }
 }
 JOINT RightHip
 {
  OFFSET -7.771700 -0.012900 -0.001300
  CHANNELS 3 Yrotation Xrotation Zrotation
  JOINT RightKnee
  {
   OFFSET 0.000000 -40.869800 0.001200
   CHANNELS 3 Yrotation Xrotation Zrotation
   JOINT RightAnkle
   {
    OFFSET 0.000000 -39.717900 0.002100
    CHANNELS 3 Yrotation Xrotation Zrotation
    JOINT RightToe
    {
     OFFSET 0.000000 -4.965400 11.033500
     CHANNELS 3 Yrotation Xrotation Zrotation
     End Site
     {
      OFFSET 0.000000 -1.423100 5.872300
     }
    }
   }
  }
 }
 JOINT LeftHip
 {
  OFFSET 7.771700 -0.012900 -0.001300
  CHANNELS 3 Yrotation Xrotation Zrotation
  JOINT LeftKnee
  {
   OFFSET 0.000000 -40.869800 0.001200
   CHANNELS 3 Yrotation Xrotation Zrotation
   JOINT LeftAnkle
   {
    OFFSET 0.000000 -39.717900 0.002100
    CHANNELS 3 Yrotation Xrotation Zrotation
    JOINT LeftToe
    {
     OFFSET 0.000000 -4.965400 11.033500
     CHANNELS 3 Yrotation Xrotation Zrotation
     End Site
     {
      OFFSET 0.000000 -1.423100 5.872300
     }
    }
   }
  }
 }
}
MOTION
Frames: 14
Frame Time: 0.008333
0.000000 85.388000 0.000000 0.000000 -5.767877 0.000000 0.000000 11.653817 0.000000 0.000000 -5.885947 0.000000 0.000000 -0.000000 0.000000 0.000000 -0.000000 0.000000 0.000000 12.528835 0.000000 0.000000 0.711642 0.000000 0.000000 -0.000000 0.000000 0.000000 0.000000 -90.000000 0.000000 -2.309062 0.000000 0.000000 2.309062 0.000000 0.000000 -0.000000 0.000000 0.000000 -0.000000 90.000000 0.000000 -2.309062 0.000000 0.000000 2.309062 0.000000 0.000000 8.520406 0.000000 0.000000 1.905762 0.000000 -0.000000 -4.658285 0.000000 0.000000 -0.000000 0.000000 0.000000 8.520406 0.000000 0.000000 1.905762 0.000000 -0.000000 -4.658285 0.000000 0.000000 -0.000000 0.000000
-24.443534 57.892720 13.252787 178.188584 -49.380367 -3.550142 3.338057 21.576286 2.539663 1.737572 12.377947 1.295595 2.215891 15.385937 1.669974 1.726809 12.314238 1.280343 -1.549154 13.078287 -0.160707 -2.863560 -11.460503 0.333566 1.932700 4.852995 0.035463 -16.474729 -18.390016 -1.405318 -53.060680 -46.378197 92.236952 -5.589258 -3.128203 -24.889526 -8.045616 2.042319 -0.108928 5.374869 -19.390888 5.746290 48.930776 -60.096307 -76.623834 8.893698 -9.053210 12.990284 2.251988 -22.273936 -3.220329 -35.258574 72.961854 -39.712477 6.170061 -13.431751 11.688309 -0.019019 -0.011976 -0.019365 -4.415991 -19.752458 6.467690 88.923960 84.031932 88.590596 0.029018 -22.513900 -16.219585 0.036232 0.067351 0.015822
-24.444250 57.900132 13.261556 178.199346 -49.467478 -3.570925 3.338348 21.604587 2.543495 1.734371 12.344413 1.285157 2.225655 15.423722 1.676420 1.728064 12.341867 1.294402 -1.536428 13.131891 -0.157240 -2.826695 -11.313934 0.316223 1.994618 4.836716 0.114096 -16.220328 -18.726781 -1.728844 -52.482465 -46.632168 91.014891 -5.307461 -2.522252 -25.045018 -8.127714 2.052559 -0.189457 5.160181 -19.506279 6.047876 48.547241 -60.881438 -75.441236 8.091048 -9.120804 12.170010 2.252187 -22.169288 -3.202506 -35.198839 72.931486 -39.639950 6.162207 -13.420394 11.685932 -0.018120 -0.003771 -0.018082 -4.446153 -19.662217 6.474477 88.813127 84.014465 88.455203 0.033173 -22.495064 -16.219887 0.022836 0.064270 0.011194
-24.448721 57.905980 13.273833 178.222266 -49.544930 -3.580251 3.329524 21.632242 2.529185 1.739629 12.364267 1.289191 2.232553 15.448573 1.681921 1.721873 12.344035 1.293882 -1.529850 13.165836 -0.151239 -2.812194 -11.264294 0.309724 2.064563 4.766456 0.218612 -16.000184 -19.008979 -2.140936 -52.028252 -46.969002 90.060317 -4.957287 -2.177322 -25.145705 -8.232533 1.988785 -0.300546 5.071707 -19.551192 6.375688 48.458348 -61.289211 -74.805345 7.227151 -9.259632 11.076008 2.246358 -22.085068 -3.210233 -35.165864 72.921492 -39.602943 6.162027 -13.416971 11.687504 -0.016278 -0.004437 -0.017965 -4.484096 -19.584780 6.464591 88.516441 83.983492 88.127496 0.014200 -22.453564 -16.218394 0.023674 0.059019 0.010581
-24.449503 57.911008 13.289160 178.237766 -49.614470 -3.606485 3.336960 21.658038 2.541821 1.742853 12.389022 1.295062 2.237896 15.468674 1.686177 1.729619 12.357970 1.295966 -1.520570 13.209064 -0.156384 -2.815896 -11.253960 0.313972 2.137654 4.646028 0.338275 -15.840525 -19.226333 -2.629934 -51.738776 -47.397035 89.412957 -4.549506 -2.032912 -25.137314 -8.331608 1.890386 -0.403947 5.075282 -19.563738 6.668590 48.683483 -61.470949 -74.696404 6.348020 -9.392290 9.807136 2.235709 -22.008780 -3.195033 -35.085764 72.899461 -39.518419 6.177820 -13.399803 11.688134 -0.015360 -0.013290 -0.017108 -4.594269 -19.515518 6.513211 88.529989 83.981303 88.045125 0.004097 -22.422324 -16.214412 0.030768 0.044786 0.011262
-24.448523 57.915640 13.306273 178.232803 -49.678083 -3.626995 3.359140 21.685312 2.565935 1.742474 12.417882 1.302224 2.239652 15.475527 1.687459 1.756343 12.432156 1.296623 -1.497002 13.188540 -0.191077 -2.773433 -11.286464 0.257983 2.215326 4.450065 0.462222 -15.758183 -19.386024 -3.152146 -51.616368 -47.888174 89.063997 -4.073455 -2.002588 -25.004927 -8.429404 1.739257 -0.485551 5.149095 -19.566994 6.916814 49.214509 -61.558707 -74.989174 5.515523 -9.465380 8.382703 2.235456 -21.932789 -3.172201 -34.931649 72.857912 -39.349716 6.182758 -13.372255 11.683077 -0.018934 -0.001739 -0.019930 -4.621155 -19.451470 6.546435 88.383247 83.982022 87.872001 0.000980 -22.399905 -16.211904 0.029933 0.041658 0.011440
-24.447720 57.921621 13.322878 178.262021 -49.745766 -3.671042 3.355898 21.737825 2.591115 1.748247 12.421846 1.299254 2.244410 15.505322 1.693366 1.758104 12.449997 1.307896 -1.479561 13.136618 -0.216140 -2.718785 -11.419736 0.181680 2.325654 4.300257 0.565262 -15.745690 -19.505661 -3.646454 -51.643127 -48.429699 88.961577 -3.529451 -2.050660 -24.739695 -8.486686 1.656001 -0.553404 5.265976 -19.584289 7.099675 49.931813 -61.650630 -75.493686 4.719850 -9.489678 6.842743 2.214388 -21.855267 -3.147409 -34.861854 72.832565 -39.268092 6.178774 -13.373058 11.678192 -0.007788 0.015653 -0.017091 -4.668168 -19.380485 6.578213 88.192723 83.985068 87.653822 0.003944 -22.361242 -16.206612 0.017222 0.024663 0.006659
-24.449201 57.923808 13.342632 178.269939 -49.778553 -3.684456 3.356627 21.758339 2.600199 1.751838 12.433704 1.303311 2.253575 15.575052 1.710972 1.746364 12.393958 1.292681 -1.455058 13.079235 -0.239191 -2.673629 -11.618594 0.113861 2.449751 4.199622 0.648845 -15.750164 -19.599631 -4.075223 -51.837771 -49.041357 89.049168 -2.941037 -2.125218 -24.337030 -8.512296 1.638956 -0.582743 5.409468 -19.631014 7.210839 50.669620 -61.826487 -76.056870 3.937512 -9.498273 5.301953 2.212669 -21.814096 -3.143299 -34.793346 72.808989 -39.185176 6.185078 -13.365787 11.674994 -0.006493 0.022365 -0.018552 -4.763839 -19.348793 6.621678 88.157509 83.989333 87.527507 -0.000681 -22.342288 -16.205428 0.017268 0.026832 0.012096
-24.451843 57.927449 13.360820 178.274808 -49.815693 -3.687263 3.353723 21.777592 2.597770 1.757485 12.475691 1.317483 2.252619 15.595836 1.715019 1.747440 12.412032 1.291464 -1.434600 12.949373 -0.270348 -2.622591 -11.871945 0.035884 2.569512 4.079451 0.693216 -15.705652 -19.673874 -4.437292 -52.241376 -49.759728 89.288066 -2.342810 -2.106396 -23.806761 -8.511174 1.607277 -0.576802 5.563968 -19.712252 7.261222 51.356587 -62.129675 -76.611838 3.193162 -9.513272 3.845739 2.217106 -21.769108 -3.145361 -34.754453 72.791968 -39.135780 6.185494 -13.368850 11.677177 -0.006330 0.034893 -0.022467 -4.790854 -19.311340 6.621634 87.978443 83.980626 87.318619 -0.001407 -22.321969 -16.201634 0.013827 0.030177 0.011564
-24.454089 57.937804 13.372858 178.294919 -49.896546 -3.702106 3.349491 21.851486 2.604123 1.758118 12.503480 1.330745 2.250684 15.623805 1.722936 1.747308 12.435642 1.288040 -1.413283 12.796138 -0.303656 -2.567623 -12.155635 -0.052304 2.681119 3.972965 0.706148 -15.576550 -19.734893 -4.750051 -52.866184 -50.605447 89.648634 -1.776933 -1.956370 -23.144089 -8.479506 1.585470 -0.544871 5.708750 -19.822216 7.273344 51.996851 -62.522082 -77.134914 2.474702 -9.564025 2.486563 2.212376 -21.677594 -3.148025 -34.706577 72.775851 -39.076050 6.184239 -13.366415 11.679306 -0.005804 0.040912 -0.027661 -4.814738 -19.225941 6.610837 87.837737 83.969127 87.159414 -0.001085 -22.307805 -16.200635 0.008544 0.030147 0.009936
-24.455517 57.942038 13.389309 178.296520 -49.921841 -3.707594 3.358561 21.880893 2.634199 1.750355 12.524661 1.326993 2.248355 15.648707 1.730923 1.748318 12.507151 1.317942 -1.399831 12.588001 -0.371701 -2.512189 -12.446375 -0.144938 2.726122 3.841218 0.655573 -15.319888 -19.806897 -5.028833 -53.654315 -51.568773 90.085071 -1.281369 -1.742364 -22.360351 -8.425878 1.509890 -0.521459 5.826151 -19.951847 7.271670 52.585076 -62.943150 -77.598488 1.753841 -9.673057 1.224880 2.216662 -21.646137 -3.151485 -34.603707 72.744778 -38.948595 6.177586 -13.337757 11.670644 0.010022 0.042716 -0.027983 -4.842907 -19.198487 6.615865 87.726101 83.959936 87.020229 0.001368 -22.304622 -16.203047 0.003371 0.040129 0.010256
-24.458533 57.946832 13.403909 178.306408 -49.943906 -3.708630 3.354670 21.914906 2.643345 1.749199 12.541631 1.333272 2.247267 15.669820 1.738866 1.749154 12.541638 1.333311 -1.384782 12.421485 -0.425115 -2.460282 -12.723625 -0.235487 2.817636 3.727859 0.604491 -15.075099 -19.875318 -5.282816 -54.507687 -52.601213 90.550082 -0.855781 -1.525560 -21.511753 -8.357208 1.462674 -0.473908 5.905387 -20.098229 7.270788 53.099002 -63.395082 -77.983348 1.078591 -9.823873 0.100494 2.221965 -21.616604 -3.168628 -34.525782 72.732503 -38.851667 6.172805 -13.332279 11.668390 -0.009795 0.045141 -0.031499 -4.891250 -19.177278 6.618915 87.590517 83.950559 86.837274 -0.001157 -22.281602 -16.198145 0.001018 0.034694 0.006534
-24.460792 57.950402 13.418099 178.311313 -49.949162 -3.709379 3.356731 21.934510 2.658319 1.746321 12.548960 1.333185 2.252395 15.691947 1.752715 1.749395 12.554785 1.339417 -1.369486 12.289222 -0.467290 -2.415084 -12.970207 -0.319880 2.875208 3.630635 0.544986 -14.789022 -19.965221 -5.509715 -55.354533 -53.626637 91.006775 -0.466112 -1.340300 -20.648480 -8.279446 1.425847 -0.408832 5.941694 -20.258044 7.274821 53.535572 -63.880784 -78.303378 0.494173 -9.980840 -0.844215 2.227760 -21.608992 -3.172328 -34.483973 72.719895 -38.794673 6.169900 -13.324659 11.663287 0.009598 0.029913 -0.021525 -4.944342 -19.175260 6.629468 87.527121 83.944890 86.723169 -0.001846 -22.259607 -16.193776 -0.002765 0.033224 0.005130
-24.464009 57.953755 13.430510 178.318224 -49.946803 -3.704782 3.355876 21.946544 2.666600 1.738537 12.542587 1.321884 2.268123 15.717308 1.776024 1.751154 12.563397 1.345043 -1.356199 12.180069 -0.504694 -2.375326 -13.173673 -0.394979 2.887054 3.540727 0.484594 -14.466142 -20.091542 -5.725505 -56.145954 -54.576610 91.421695 -0.081554 -1.185636 -19.806108 -8.201833 1.381633 -0.336129 5.935316 -20.424253 7.288670 53.901276 -64.362212 -78.562055 0.002622 -10.120049 -1.618198 2.228299 -21.608803 -3.184714 -34.429295 72.713422 -38.730500 6.163347 -13.314377 11.655181 0.027703 0.021677 -0.014120 -4.981102 -19.181432 6.628843 87.329900 83.927365 86.482726 -0.012732 -22.226272 -16.181909 -0.005057 0.029358 0.002402
